<svg xmlns="http://www.w3.org/2000/svg" width="374.886" height="512" viewBox="0 0 374.886 512">
  <g id="bag" transform="translate(-68.557)">
    <g id="Group_1" data-name="Group 1">
      <path id="Path_1" data-name="Path 1" d="M443.188,442.208,415.956,142.56A16.032,16.032,0,0,0,399.988,128h-48V96a96,96,0,1,0-192,0v32h-48a15.979,15.979,0,0,0-15.936,14.56L68.82,442.208A63.988,63.988,0,0,0,132.564,512h246.88a63.988,63.988,0,0,0,63.744-69.792ZM191.988,96a64,64,0,1,1,128,0v32h-128ZM403.06,469.6A31.763,31.763,0,0,1,379.412,480H132.564a31.994,31.994,0,0,1-31.84-34.912L126.612,160h33.376v48a16,16,0,0,0,32,0V160h128v48a16,16,0,0,0,32,0V160h33.376l25.92,285.12A31.6,31.6,0,0,1,403.06,469.6Z" fill="#ffbfc1"/>
    </g>
  </g>
</svg>
