<svg xmlns="http://www.w3.org/2000/svg" width="512" height="512" viewBox="0 0 512 512">
  <g id="instagram" transform="translate(0.001)">
    <path id="Path_1" data-name="Path 1" d="M373.406,0H138.593C62.171,0,0,62.172,0,138.594V373.41C0,449.828,62.171,512,138.593,512H373.409C449.827,512,512,449.828,512,373.41V138.594C512,62.172,449.827,0,373.4,0ZM481.984,373.41A108.7,108.7,0,0,1,373.406,481.984H138.593A108.7,108.7,0,0,1,30.015,373.41V138.594A108.7,108.7,0,0,1,138.593,30.016H373.409A108.7,108.7,0,0,1,481.983,138.594Zm0,0" fill="#fff"/>
    <path id="Path_2" data-name="Path 2" d="M256,116c-77.2,0-140,62.8-140,140s62.8,140,140,140,140-62.8,140-140S333.2,116,256,116Zm0,249.977A109.98,109.98,0,1,1,365.98,256,110.106,110.106,0,0,1,256,365.981Zm0,0" fill="#fff"/>
    <path id="Path_3" data-name="Path 3" d="M399.344,66.285a41.369,41.369,0,1,0,41.371,41.367A41.413,41.413,0,0,0,399.344,66.285Zm0,52.719A11.352,11.352,0,1,1,410.7,107.652,11.366,11.366,0,0,1,399.344,119Zm0,0" fill="#fff"/>
  </g>
</svg>
